inDegrees=yes
name=ik_Xsens_quaternion
DataType=double
version=3
OpenSimVersion=4.4-2022-07-23-0e9fedc
endheader
time	pelvis_tilt	pelvis_list	pelvis_rotation	pelvis_tx	pelvis_ty	pelvis_tz	hip_flexion_r	hip_adduction_r	hip_rotation_r	knee_angle_r	knee_angle_r_beta	ankle_angle_r	subtalar_angle_r	mtp_angle_r	hip_flexion_l	hip_adduction_l	hip_rotation_l	knee_angle_l	knee_angle_l_beta	ankle_angle_l	subtalar_angle_l	mtp_angle_l	lumbar_extension	lumbar_bending	lumbar_rotation	arm_flex_r	arm_add_r	arm_rot_r	elbow_flex_r	pro_sup_r	wrist_flex_r	wrist_dev_r	arm_flex_l	arm_add_l	arm_rot_l	elbow_flex_l	pro_sup_l	wrist_flex_l	wrist_dev_l
37.46666666666667	0	0	0	0	0.93	0	18.82100067599547	-14.52799971939466	12.45299928862497	17.54700042428668	0.3062529312526446	7.216999994141599	0	0	119.974882176564	-49.99842695662158	35.89609122739085	13.97379978014409	0.2438888151779741	0	0	0	0	0	0	0	0	0	0	2.629608553865888e-39	0	0	-53.3548198171755	-108.2743430579431	-89.95044695912985	12.84148385809361	45.00002023658899	0	0
37.48333333333333	0	0	0	0	0.93	0	18.82100067599547	-14.52799971939466	12.45299928862497	17.54700042428668	0.3062529312526446	7.216999994141599	0	0	119.9593070285847	-49.9984397184203	35.67674710634205	12.79625205031122	0.2233367301930059	0	0	0	0	0	0	0	0	0	0	0	0	0	-52.55847092602127	-108.9518595179362	-89.9595925924296	13.34752554239674	45.00001994057401	0	0
37.5	0	0	0	0	0.93	0	18.82100067599547	-14.52799971939466	12.45299928862497	17.54700042428668	0.3062529312526446	7.216999994141599	0	0	119.8841246652395	-49.99845172014555	35.21282052290211	11.3866302660665	0.1987341888500984	0	0	0	0	0	0	0	0	0	0	1.84435128735582e-38	0	0	-51.80670407509809	-109.6609187078285	-89.96692432811891	13.75615901337937	45.00001947237054	0	0
37.51666666666667	0	0	0	0	0.93	0	18.82100067599547	-14.52799971939466	12.45299928862497	17.54700042428668	0.3062529312526446	7.216999994141599	0	0	42.95901485222322	-49.99830582405001	-39.96810424394366	0.00307805927900486	5.372226899019757e-05	0	0	0	0	0	0	0	0	0	0	0	0	0	-51.06224061852839	-110.3887109168499	-89.97257889776981	14.08107241435254	45.00000421545333	0	0
37.53333333333333	0	0	0	0	0.93	0	18.82100067599547	-14.52799971939466	12.45299928862497	17.54700042428668	0.3062529312526446	7.216999994141599	0	0	43.32222369675098	-49.99826284067258	-39.96961762087614	0.002944008354658336	5.138263899500891e-05	0	0	0	0	0	0	0	0	0	0	1.575718026781036e-39	0	0	-50.35945994533503	-111.1235449000571	-89.97682399942705	14.47224193927502	45.00000419101148	0	0
37.55	0	0	0	0	0.93	0	18.82100067599547	-14.52799971939466	12.45299928862497	17.54700042428668	0.3062529312526446	7.216999994141599	0	0	43.73935920478124	-49.99821726430277	-39.97021943462827	0.002812983418711816	4.909582246052746e-05	0	0	0	0	0	0	0	0	0	8.259003967508587e-39	0	0	0	-49.76001400486433	-111.8833785855872	-89.98005626480796	14.99209701149523	45.00000416147441	0	0
37.56666666666666	8.062713296967317e-27	-3.87488916639061e-21	3.856159123280728e-27	-1.008137858898363e-21	0.93	-2.584054132399141e-22	18.82100067599547	-14.52799971939466	12.45299928862497	17.54700042428668	0.3062529312526446	7.216999994141599	1.325517526541848e-20	1.270172798648948e-20	44.18430416620129	-49.99817097314548	-39.97105923403373	0.002688143432764323	4.691695366760025e-05	-4.228738238993122e-17	-1.235784950326523e-21	-1.437325216986854e-19	1.032848951625202e-26	6.626788503843989e-19	-3.305177473817691e-27	-2.318768510819492e-19	4.791752841283602e-19	-7.440933207650363e-18	0	0	-1.64627732615009e-19	-1.80465490176275e-20	-49.33149038846837	-112.7101272707214	-89.98263494650185	15.50039311009993	45.0000041319086	4.00534675048937e-20	-1.991143022454233e-21
37.58333333333334	2.815048042268592e-27	2.907942553531332e-20	1.707105550446088e-27	-3.287602343682812e-20	0.93	4.014741326436849e-21	18.82100067599547	-14.52799971939466	12.45299928862497	17.54700042428668	0.3062529312526446	7.216999994141599	-3.507411324806515e-21	-6.675003199248281e-20	44.7165743868725	-49.99812489327199	-39.97227333818255	0.002570129540783949	4.485722268944979e-05	4.651567542983211e-18	1.289980256851019e-21	-1.067965680553019e-18	2.053069056152449e-27	1.523312632006572e-18	3.459225159558166e-27	-3.899873751121026e-19	-2.302813513892694e-20	1.448417815655348e-18	0	0	2.811794883729064e-18	-1.392241370762992e-20	-48.95760602455047	-113.5728062559364	-89.98477044949888	15.99231506823643	45.00000410186958	2.407421560026032e-18	1.848853084946837e-21
37.6	0	0	0	0	0.93	0	18.82100067599547	-14.52799971939466	12.45299928862497	17.54700042428668	0.3062529312526446	7.216999994141599	0	0	45.29775863061025	-49.99807944602611	-39.97409159957535	0.002455861876144582	4.286287571292813e-05	0	0	0	0	0	0	0	0	0	8.819266993338102e-41	0	0	0	-48.54984109392092	-114.3835614255786	-89.98657354953995	16.57173803600916	45.00000407238316	0	0
37.61666666666667	0	0	0	0	0.93	0	18.82100067599547	-14.52799971939466	12.45299928862497	17.54700042428668	0.3062529312526446	7.216999994141599	0	0	46.04211492041834	-49.99803550335487	-39.97519979492082	0.002344236818298449	4.091465092578398e-05	0	0	0	0	0	0	0	0	0	0	0	0	0	-48.11193555335498	-115.1845424163226	-89.98808237831764	17.10776599621764	45.00000404213806	0	0
37.63333333333333	0	0	0	0	0.93	0	18.82100067599547	-14.52799971939466	12.45299928862497	17.54700042428668	0.3062529312526446	7.216999994141599	0	0	46.86836534145367	-49.99798654114329	-39.97556456751995	0.002237194141411438	3.904640377395721e-05	0	0	0	0	0	0	0	0	0	0	0	0	0	-47.64841598613381	-115.9312174361369	-89.98936733387963	17.72479663087386	45.00000401228695	0	0
